<svg xmlns="http://www.w3.org/2000/svg" width="24" height="24" viewBox="0 0 24 24">
    <path fill="#FFF" fill-rule="evenodd" d="M9 7.222v7.547H6.942l1.634 4.949c.169.512-.11 1.064-.621 1.233-.099.032-.202.049-.306.049h-.627c-.431 0-.814-.277-.95-.687l-1.83-5.543h-.728c-.673 0-1.219-.545-1.219-1.218v-5.11c0-.672.546-1.218 1.22-1.218l5.483-.002zM20.924 3.56c.064.151.097.313.097.478v13.925c0 .674-.545 1.22-1.219 1.22-.163 0-.324-.034-.475-.097L11 15.559v-9.1l8.327-3.544c.62-.264 1.335.025 1.599.644z"/>
</svg>
