<svg xmlns="http://www.w3.org/2000/svg" width="24" height="24" viewBox="0 0 24 24">
    <path fill="#00073B" fill-rule="evenodd" d="M17.61 5.208c.303-.304.796-.304 1.1 0 .305.304.305.797 0 1.102l-5.444 5.443 5.445 5.445c.304.304.304.797 0 1.101-.305.304-.798.304-1.102 0l-5.97-5.97c-.138-.138-.213-.315-.226-.496v-.159c.013-.18.088-.358.226-.496zM4.001 11.674c.012-.18.088-.358.226-.496l5.97-5.97c.304-.304.797-.304 1.101 0 .304.304.304.797 0 1.102l-5.444 5.443 5.444 5.445c.304.304.304.797 0 1.101-.304.304-.797.304-1.101 0l-5.97-5.97c-.138-.138-.214-.315-.226-.496z"/>
</svg>
