<svg xmlns="http://www.w3.org/2000/svg" xmlns:xlink="http://www.w3.org/1999/xlink" width="240" height="240" viewBox="0 0 240 240">
    <defs>
        <path id="prefix__a" d="M64.841 40.682c1.874.998 3.154 3.012 3.154 5.334v6.503c0 3.01-2.152 5.503-4.958 5.936-.847 10.127-6.926 18.714-15.44 22.88v9.197h1.942c8.495 0 16.283 3.12 22.341 8.307V37.013c0-10.22-4.022-19.474-10.526-26.172S45.864 0 35.94 0C16.091 0 0 16.571 0 37.013v91.891c6.59-.97 11.656-6.807 11.656-13.863V92.245c3.368-1.112 6.959-1.713 10.685-1.713h1.943v-9.197c-5.453-2.668-9.907-7.15-12.628-12.688v-31c4.443-1.489 9.12-3.626 13.765-6.388 7.481-4.448 13.643-9.78 17.837-15.055.857 2.6 1.995 5.204 3.42 7.747 4.259 7.596 10.255 13.18 16.46 16.022v.124c.195.034.386.077.573.13.376.162.753.314 1.13.455z"/>
    </defs>
    <g fill="none" fill-rule="evenodd">
        <path fill="#99A2CF" d="M133 145.864c19.882 0 36 16.117 36 36v2.999H70v-3c0-19.882 16.118-36 36-36h27z"/>
        <path fill="#C1C6E2" d="M119.5 64c15.74 0 28.5 12.76 28.5 28.5v18c0 15.74-12.76 28.5-28.5 28.5S91 126.24 91 110.5v-18C91 76.76 103.76 64 119.5 64z"/>
        <rect width="14" height="20" x="86" y="94" fill="#C1C6E2" rx="6.5"/>
        <rect width="13" height="20" x="140" y="94" fill="#C1C6E2" rx="6.5"/>
        <g transform="translate(84 54.864)">
            <mask id="prefix__b" fill="#fff">
                <use xlink:href="#prefix__a"/>
            </mask>
            <use fill="#FFF" xlink:href="#prefix__a"/>
            <g fill="#FFF" mask="url(#prefix__b)">
                <path d="M0 0H128.219V140.05H0z"/>
            </g>
            <path fill="#FFF" d="M64.841 40.682c2.365.887 4.739 1.369 7.04 1.407v-5.076c0-10.22-4.023-19.474-10.527-26.172 6.504 6.698 10.526 15.951 10.526 26.172V98.84c-6.058-5.187-13.846-8.307-22.34-8.307h-1.943v-9.197c8.514-4.166 14.593-12.753 15.44-22.88 2.806-.433 4.958-2.926 4.958-5.936v-6.503c0-2.322-1.28-4.336-3.154-5.334zm-1.13-.455c-.187-.053-.378-.096-.573-.13v-.124c.191.087.382.172.573.254zm-52.055 28.42c2.72 5.539 7.175 10.02 12.628 12.688v9.197H22.34c-3.726 0-7.317.6-10.685 1.713V68.647z"/>
        </g>
        <rect width="23" height="36" x="109" y="121" fill="#C1C6E2" rx="11.5"/>
    </g>
</svg>
