<svg xmlns="http://www.w3.org/2000/svg" width="32" height="32" viewBox="0 0 32 32">
    <g fill="none" fill-rule="evenodd">
        <circle cx="16" cy="16" r="16" fill="#FEDD03"/>
        <ellipse cx="10.222" cy="12.889" fill="#00073B" rx="2.222" ry="3.111"/>
        <path fill="#00073B" fill-rule="nonzero" d="M22.298 20.751c.322-.449.946-.552 1.395-.23.45.321.553.946.231 1.395-1.888 2.636-4.563 3.973-7.924 3.973-3.361 0-6.036-1.337-7.924-3.973-.322-.45-.218-1.074.23-1.396.45-.321 1.074-.218 1.396.231 1.507 2.105 3.574 3.138 6.298 3.138s4.79-1.033 6.298-3.138z"/>
        <ellipse cx="21.778" cy="12.889" fill="#00073B" rx="2.222" ry="3.111"/>
    </g>
</svg>
