<svg xmlns="http://www.w3.org/2000/svg" width="24" height="24" viewBox="0 0 24 24">
    <path fill="#FFF" fill-rule="evenodd" d="M11.012 3.972c1.764 0 3.449.506 4.894 1.444l-1.312 1.31c-1.079-.619-2.305-.95-3.582-.95-1.927 0-3.737.75-5.1 2.111-2.81 2.812-2.81 7.387 0 10.199 1.362 1.362 3.173 2.112 5.1 2.112 1.926 0 3.737-.75 5.1-2.112 1.36-1.362 2.11-3.173 2.11-5.1 0-1.277-.331-2.503-.95-3.582l1.31-1.311c.938 1.445 1.443 3.13 1.443 4.894 0 2.407-.937 4.67-2.64 6.373C15.684 21.062 13.42 22 11.013 22c-2.408 0-4.672-.938-6.374-2.64-3.515-3.514-3.514-9.233 0-12.748 1.703-1.702 3.966-2.64 6.374-2.64zm0 3.426c.837 0 1.646.183 2.382.53L11.99 9.332c-.316-.084-.643-.132-.978-.132-1.011 0-1.962.394-2.677 1.11-1.476 1.476-1.477 3.877 0 5.353.715.715 1.665 1.109 2.677 1.109 1.011 0 1.961-.394 2.677-1.109.988-.988 1.31-2.39.976-3.652l1.403-1.403c.972 2.072.605 4.621-1.105 6.33-1.055 1.056-2.459 1.638-3.951 1.638-1.493 0-2.896-.582-3.952-1.637-1.056-1.056-1.637-2.46-1.637-3.952 0-1.493.581-2.897 1.637-3.952 1.056-1.056 2.46-1.637 3.952-1.637zM19.722 1l.034.008c.034.014.055.048.055.084l-.053 2.67.477.478 2.671-.053c.035-.002.07.021.085.055.014.034.006.073-.02.099l-2.629 2.63c-.016.016-.038.025-.062.025l-2.174.044-5.382 5.381c.059.178.09.368.09.565 0 .996-.807 1.803-1.802 1.803-.996 0-1.803-.807-1.803-1.803 0-.995.807-1.802 1.803-1.802.197 0 .387.031.564.09l5.383-5.381.043-2.175c0-.023.01-.046.026-.062l2.629-2.629c.026-.026.065-.034.1-.02z"/>
</svg>
