<svg xmlns="http://www.w3.org/2000/svg" width="24" height="24" viewBox="0 0 24 24">
    <path fill="#FFF" fill-rule="evenodd" d="M4 17c1.105 0 2 .895 2 2s-.895 2-2 2-2-.895-2-2 .895-2 2-2zm17 1c.552 0 1 .448 1 1s-.448 1-1 1H10c-.552 0-1-.448-1-1s.448-1 1-1h11zM4 10c1.105 0 2 .895 2 2s-.895 2-2 2-2-.895-2-2 .895-2 2-2zm17 1c.552 0 1 .448 1 1s-.448 1-1 1H10c-.552 0-1-.448-1-1s.448-1 1-1h11zM4 3c1.105 0 2 .895 2 2s-.895 2-2 2-2-.895-2-2 .895-2 2-2zm17 1c.552 0 1 .448 1 1s-.448 1-1 1H10c-.552 0-1-.448-1-1s.448-1 1-1h11z"/>
</svg>
